#!OML:ASF E:/inclinewalkrobotboard/Project1/Captureday1/Session1/subject1.ASF
:FULLY-SPECIFIED
:DEGREES
113
root 0 0 0 -4.014288570533793 -2.6783003913084036 1.6872639757366987
lowerback 10.830216990128516 -0.28000881760304563 -2.911424281698185
upperback 0.28858128106551817 -0.6775475101274091 0.9002133907872427
thorax -5.807927858948184 -0.25144749903677466 2.6910487423833653
lowerneck -17.451908979134053 -2.446885576378159 -2.1472659014775304
upperneck 18.51576438680201 -2.9242757582375782 0.2518203300849591
head 8.734129155732742 -1.4839798936155617 0.07254320111348428
rclavicle -2.2392550448511078E-15 -1.3762629364978159E-17
rhumerus -34.29094503943796 -22.437851862710374 -78.55685267997205
rradius 19.566176813766788
rwrist 7.443880718043197
rhand -17.90154208551462 25.805698352520544
rfingers 7.125020000000024
rthumb 8.361010566511329 -4.001631146727441
lclavicle -2.0849602169511664E-15 -3.8046444917561695E-16
lhumerus -33.825198460471185 4.125364301101297 79.44362928776707
lradius 25.223751332318287
lwrist 3.9480901451146067
lhand -26.918768728488995 24.40257105296138
lfingers 7.1250200000000135
lthumb -0.3545775895388843 54.36936747233295
rfemur -33.63289935824003 -0.4297639417897634 19.67587602824294
rtibia 59.021112313665355
rfoot -6.415608042591948 -8.268793515763646
rtoes 2.516469608163729
lfemur 5.534018222833223 -3.306665171829129 -28.737639167174954
ltibia 20.24239305058029
lfoot -18.427442443897906 0.8769586749456497
ltoes -1.5221521660624724
114
root 0 0 0 -2.1833361008230683 -1.0755212861872905 2.414852952225114
lowerback 10.449583737610212 -0.9780639340808118 -4.014320128432618
upperback 0.5924621341193163 -1.7067625984412185 1.1994714663972816
thorax -5.169069635927488 -0.7362709463606365 3.7517691801038224
lowerneck -16.63132738727379 -2.344329906180577 -2.047921549724318
upperneck 19.146818124417297 -2.6704591330945577 -0.07344899107514369
head 8.732129236228008 -1.4047766326503206 -0.022387614739767525
rclavicle -3.158374568285682E-16 -2.9035054137592836E-16
rhumerus -34.5687732989401 -22.333400576378132 -78.47519769630433
rradius 20.06173027507667
rwrist 6.928566188773186
rhand -18.051782589341087 25.519763919782513
rfingers 7.125020000000026
rthumb 8.216144746157221 -4.314539576445625
lclavicle -1.3759480296695808E-16 -1.036002348786449E-15
lhumerus -28.520823281562727 -1.3487678318121314 79.7864610283432
lradius 30.272225065802196
lwrist 6.824587054134282
lhand -27.74535933136055 25.93257736708319
lfingers 7.125020000000002
lthumb -1.15679466597099 55.93288934968512
rfemur -34.809038113140616 1.053664547085479 17.592927793063183
rtibia 44.6814482848978
rfoot -7.447918017931645 -10.206258350837967
rtoes -0.5040023608939193
lfemur 6.6124019839464365 -2.8968926394866608 -29.025336956886008
ltibia 20.005947443252577
lfoot -18.594871862354193 0.583496770853392
ltoes -1.5031695342760365
115
root 0 0 0 -1.4706194521196505 -0.260430547032509 2.7184054283454153
lowerback 10.564470829183541 -1.2223767014933529 -4.5123695926823215
upperback 0.6017457925362781 -2.0663961576607273 1.3589145518139518
thorax -5.15928709046384 -0.9043074098340773 4.234462364140361
lowerneck -17.13996513112651 -2.4652312133241403 -2.158207240635633
upperneck 19.43628589710209 -2.7905907710506552 -0.20214783691986238
head 8.9372527208857 -1.4779115250723425 -0.07600382634639241
rclavicle 2.935453122793235E-16 2.726237034169794E-16
rhumerus -34.82631233746103 -22.70799244415651 -78.12402040036231
rradius 20.211536382602382
rwrist 6.29721199152879
rhand -18.153181537734564 25.156599554779746
rfingers 7.125020000000027
rthumb 8.119354376496325 -4.6893085416056906
lclavicle 5.722879091669948E-17 -4.860035389412713E-16
lhumerus -26.880840040015592 -2.8770209394797495 80.17343200586838
lradius 31.52121544737585
lwrist 7.374733485057096
lhand -27.831086322612734 26.132402803920943
lfingers 7.125019999999998
lthumb -1.2448361516721844 56.142491534791176
rfemur -34.97031277765093 3.9126848567462633 19.144022837005913
rtibia 31.75919853793766
rfoot -9.255300059040199 -12.139234456014126
rtoes -1.570228241407715
lfemur 7.7677214886886725 -2.889809526201065 -28.894245137122404
ltibia 19.773682484348658
lfoot -17.655206842466345 -0.24843643570603247
ltoes -2.193696016381608
116
root 0 0 0 -1.300308856626336 0.1863994650921872 2.630182568649676
lowerback 10.60953838112843 -1.3429412996032535 -4.522601428716042
upperback 0.5874026496302354 -2.213600435091955 1.4816315673357947
thorax -5.169074768290686 -0.9782337972182062 4.384966299979023
lowerneck -17.554576571304978 -2.5284731457876535 -2.2442438845058366
upperneck 19.503491350104927 -2.8804389914799944 -0.1862670943897149
head 9.046909662621852 -1.5161569739366356 -0.07574874684704419
rclavicle -4.3892939687083583E-16 6.222666240284105E-16
rhumerus -35.114371610249066 -23.256714326171625 -77.79690442620603
rradius 19.81257278808254
rwrist 6.267825895789476
rhand -18.131749784097295 25.06900859273194
rfingers 7.125020000000026
rthumb 8.140249649994086 -4.769886726036571
lclavicle -8.778401548184195E-16 -9.030813894129061E-17
lhumerus -26.47947450709954 -3.3341396971039425 80.4069944590154
lradius 31.81297650843704
lwrist 7.4771263685726375
lhand -27.836850291217296 26.016010306538032
lfingers 7.125019999999996
lthumb -1.2522720491415393 56.0252847608473
rfemur -34.17518868063662 5.534930997755666 20.225135575781046
rtibia 24.84017191298412
rfoot -9.977123651241897 -12.806172759949172
rtoes -2.5073006227331245
lfemur 9.929159719002438 -3.143374030911145 -28.595028153538813
ltibia 19.626011559304025
lfoot -15.677045689396598 -1.896101365119407
ltoes -3.575277329439121
117
root 0 0 0 -1.384343521307868 0.526010617551183 1.9711728683292553
lowerback 10.474944509426804 -1.457903207016761 -4.008383262517134
upperback 0.45502764067229906 -2.289311016455385 1.698714770302519
thorax -5.226923679401227 -1.0276641100726793 4.3362451524867
lowerneck -17.918121130840763 -2.4968001613443684 -2.226867289141193
upperneck 19.773490461619083 -2.8674819991324947 -0.2310142851290502
head 9.209417520273792 -1.4981839744940797 -0.09858633981666076
rclavicle -1.0363771889264566E-15 5.649955886697833E-16
rhumerus -35.4648011884448 -23.838811059126655 -77.53032254854251
rradius 19.174083299344424
rwrist 6.7906911433240795
rhand -18.048730060354508 25.119680824837673
rfingers 7.125020000000024
rthumb 8.21997825568582 -4.706740874922481
lclavicle -1.7712052528649317E-15 -1.2836030257193092E-16
lhumerus -26.690538119525467 -3.322689127671317 80.5332387835862
lradius 31.755928828820906
lwrist 7.497847415608289
lhand -27.838553406719697 25.946688030767515
lfingers 7.125019999999996
lthumb -1.2539963402741607 55.954315492802166
rfemur -32.25510694333421 5.9017963061569 20.61445803732616
rtibia 23.261677855475206
rfoot -9.513795172059872 -11.782608931923765
rtoes -2.076479788159123
lfemur 12.491667250639004 -3.486109267514321 -28.202492399586834
ltibia 20.131809805114912
lfoot -12.901824866122853 -4.1895468556994935
ltoes -5.514346172826805
